<?xml version="1.0" encoding="iso-8859-1"?>
<!-- Generator: Adobe Illustrator 25.0.0, SVG Export Plug-In . SVG Version: 6.00 Build 0)  -->
<!DOCTYPE svg PUBLIC "-//W3C//DTD SVG 1.0//EN" "http://www.w3.org/TR/2001/REC-SVG-20010904/DTD/svg10.dtd" [
	<!ENTITY ns_extend "http://ns.adobe.com/Extensibility/1.0/">
	<!ENTITY ns_ai "http://ns.adobe.com/AdobeIllustrator/10.0/">
	<!ENTITY ns_graphs "http://ns.adobe.com/Graphs/1.0/">
	<!ENTITY ns_vars "http://ns.adobe.com/Variables/1.0/">
	<!ENTITY ns_imrep "http://ns.adobe.com/ImageReplacement/1.0/">
	<!ENTITY ns_sfw "http://ns.adobe.com/SaveForWeb/1.0/">
	<!ENTITY ns_custom "http://ns.adobe.com/GenericCustomNamespace/1.0/">
	<!ENTITY ns_adobe_xpath "http://ns.adobe.com/XPath/1.0/">
]>
<svg version="1.0" xmlns:x="&ns_extend;" xmlns:i="&ns_ai;" xmlns:graph="&ns_graphs;"
	 xmlns="http://www.w3.org/2000/svg" xmlns:xlink="http://www.w3.org/1999/xlink" x="0px" y="0px" viewBox="0 0 791.35 277.28"
	 style="enable-background:new 0 0 791.35 277.28;" xml:space="preserve">
<style type="text/css">
	.Drop_x0020_Shadow{fill:none;}
	.Round_x0020_Corners_x0020_2_x0020_pt{fill:#FFFFFF;stroke:#231F20;stroke-miterlimit:10;}
	.Live_x0020_Reflect_x0020_X{fill:none;}
	.Bevel_x0020_Soft{fill:url(#SVGID_1_);}
	.Dusk{fill:#FFFFFF;}
	.Foliage_GS{fill:#FFDD00;}
	.Pompadour_GS{fill-rule:evenodd;clip-rule:evenodd;fill:#44ADE2;}
	.Graphic_x0020_Style{fill:url(#SVGID_2_);}
	.Graphic_x0020_Style_x0020_2{fill:url(#SVGID_3_);}
	.Graphic_x0020_Style_x0020_3{fill:url(#SVGID_4_);}
	.Graphic_x0020_Style_x0020_4{fill:url(#SVGID_5_);}
	.st0{fill:#242021;}
</style>
<metadata>
	<sfw  xmlns="&ns_sfw;">
		<slices></slices>
		<sliceSourceBounds  bottomLeftOrigin="true" height="279.85" width="1627.78" x="-0.44" y="-452.36"></sliceSourceBounds>
	</sfw>
</metadata>
<linearGradient id="SVGID_1_" gradientUnits="userSpaceOnUse" x1="-835.9875" y1="-175.0851" x2="-835.2804" y2="-174.378">
	<stop  offset="0" style="stop-color:#DEDFE3"/>
	<stop  offset="0.1783" style="stop-color:#DADBDF"/>
	<stop  offset="0.3611" style="stop-color:#CECFD3"/>
	<stop  offset="0.546" style="stop-color:#B9BCBF"/>
	<stop  offset="0.7324" style="stop-color:#9CA0A2"/>
	<stop  offset="0.9181" style="stop-color:#787D7E"/>
	<stop  offset="1" style="stop-color:#656B6C"/>
</linearGradient>
<linearGradient id="SVGID_2_" gradientUnits="userSpaceOnUse" x1="-835.9875" y1="-175.0851" x2="-836.1017" y2="-174.0916">
	<stop  offset="0" style="stop-color:#FFBF4C"/>
	<stop  offset="1" style="stop-color:#FFAA01;stop-opacity:0"/>
</linearGradient>
<linearGradient id="SVGID_3_" gradientUnits="userSpaceOnUse" x1="-835.9875" y1="-175.0851" x2="-836.3734" y2="-174.1626">
	<stop  offset="0" style="stop-color:#F9CC85"/>
	<stop  offset="1" style="stop-color:#FFAA01;stop-opacity:0"/>
</linearGradient>
<linearGradient id="SVGID_4_" gradientUnits="userSpaceOnUse" x1="-835.9875" y1="-175.0851" x2="-836.3734" y2="-174.1626">
	<stop  offset="0" style="stop-color:#F9CC85"/>
	<stop  offset="1" style="stop-color:#FFAA01;stop-opacity:0"/>
</linearGradient>
<linearGradient id="SVGID_5_" gradientUnits="userSpaceOnUse" x1="-835.9875" y1="-175.0851" x2="-835.9982" y2="-176.0851">
	<stop  offset="0" style="stop-color:#F9CC85"/>
	<stop  offset="1" style="stop-color:#FFAA01;stop-opacity:0"/>
</linearGradient>
<g id="BACKGROUND">
</g>
<g id="DESIGNED_BY_FREEPIK">
</g>
<g id="OBJECTS">
	<path class="st0" d="M0,277.28v-3.28V133.74v-29.44v-3.28c5.86-1.01,11.9-3.95,16.14-7.27c7.88-6.18,16.29-14.18,27.59-13.4
		c16.66,1.15,23.06,20.47,39.74,21.42c17.27,0.99,23.09-16.77,34.1-26.9c13.37-12.31,41.55-12.78,55.63-0.93
		c8.2,6.91,15.02,18.06,27.14,16.65c9.13-1.07,13.46-8.92,16.13-15.61c4.44-11.14,8.89-22.28,13.33-33.42
		c6.58-16.49,19.16-36.44,41.89-35.78c16.02,0.47,27.87,11.92,32.83,23.47c4.97,11.55,5.48,24.06,11.36,35.36
		c5.88,11.3,19.96,21.78,35.83,20.05c15.1-1.64,24.32-12.96,32.67-22.63c8.35-9.67,21.4-19.83,36.29-17.32
		c19.06,3.22,24.84,24.69,43.93,27.8c16.21,2.64,29.11-9.37,41.48-17.74c3.04-2.06,6.36-3.99,10.24-4.95
		c21-5.21,35.35,19.03,57.23,21.37c13.68,1.46,26.27-6.3,33.8-15.07c7.52-8.78,12.01-19,20.61-27.19
		c6.23-5.94,15.73-10.88,25.63-9.71c7.5,0.89,13.53,5.05,18.62,9.32c9.65,8.1,17.71,17.3,23.81,27.19
		c7.43,12.02,16.16,27.44,33.69,27.51c8.08,0.03,15.3-3.54,22.88-5.64c12.73-3.53,25.85-2.88,38.74,0.05v3.28v32.16v160.91v3.28H0z"
		/>
</g>
</svg>
