<?xml version="1.0" encoding="UTF-8"?>
<!DOCTYPE svg PUBLIC "-//W3C//DTD SVG 1.1//EN" "http://www.w3.org/Graphics/SVG/1.1/DTD/svg11.dtd">
<svg xmlns="http://www.w3.org/2000/svg" version="1.1" width="1059px" height="294px" style="shape-rendering:geometricPrecision; text-rendering:geometricPrecision; image-rendering:optimizeQuality; fill-rule:evenodd; clip-rule:evenodd" xmlns:xlink="http://www.w3.org/1999/xlink">
<g><path style="opacity:1" fill="#211d1e" d="M 153.5,1.5 C 160.582,0.642797 167.249,1.80946 173.5,5C 181.102,12.9683 179.436,17.8016 168.5,19.5C 160.65,19.1604 154.484,15.827 150,9.5C 148.78,5.70686 149.947,3.04019 153.5,1.5 Z"/></g>
<g><path style="opacity:0.999" fill="#201c1c" d="M 194.5,14.5 C 197.962,15.1557 201.128,16.489 204,18.5C 204.759,23.7415 202.426,26.0748 197,25.5C 191.469,25.6353 189.136,22.9687 190,17.5C 191.409,16.2189 192.909,15.2189 194.5,14.5 Z"/></g>
<g><path style="opacity:1" fill="#231f20" d="M 198.5,39.5 C 200.027,39.573 201.027,38.9063 201.5,37.5C 210.257,31.7153 219.59,30.5486 229.5,34C 231.373,35.7038 233.04,37.5372 234.5,39.5C 234.833,40.5 235.5,41.1667 236.5,41.5C 238.541,45.9517 240.208,50.6184 241.5,55.5C 241.932,56.7095 242.599,57.7095 243.5,58.5C 248.798,68.2844 256.798,75.1177 267.5,79C 278.976,82.8328 290.643,83.8328 302.5,82C 310.283,78.9418 317.95,75.6084 325.5,72C 328.063,70.9207 330.729,70.4207 333.5,70.5C 334.791,70.7373 335.791,70.404 336.5,69.5C 357.75,67.9744 375.416,74.9744 389.5,90.5C 389.833,91.5 390.5,92.1667 391.5,92.5C 394.775,95.8084 398.442,98.6418 402.5,101C 413.793,105.643 425.127,110.309 436.5,115C 446.281,116.876 455.947,116.209 465.5,113C 480.102,107.695 494.435,101.861 508.5,95.5C 510.027,95.573 511.027,94.9063 511.5,93.5C 520.687,88.7151 530.354,85.2151 540.5,83C 551.356,79.6043 559.023,82.9377 563.5,93C 562.804,94.8928 561.97,96.7262 561,98.5C 558.205,100.293 555.705,102.46 553.5,105C 547.475,107.675 541.808,110.842 536.5,114.5C 539.187,117.689 542.687,119.356 547,119.5C 553.586,118.417 560.086,116.917 566.5,115C 569.976,109.201 573.81,103.701 578,98.5C 585.095,91.2024 593.595,86.3691 603.5,84C 610.514,83.212 617.514,82.3787 624.5,81.5C 627.152,81.5905 629.485,80.9238 631.5,79.5C 640.063,74.7136 646.063,67.7136 649.5,58.5C 650.906,58.0269 651.573,57.0269 651.5,55.5C 653.372,52.4713 656.039,50.3046 659.5,49C 673.781,44.5353 688.115,44.5353 702.5,49C 721.048,54.7382 739.715,60.0716 758.5,65C 763.5,65.6667 768.5,65.6667 773.5,65C 782.609,61.9448 791.609,58.6114 800.5,55C 803.658,54.4459 806.825,53.9459 810,53.5C 826.824,56.9431 843.658,60.2765 860.5,63.5C 865.524,62.8061 870.524,61.9728 875.5,61C 893.077,54.043 910.743,47.3763 928.5,41C 937.113,39.4947 945.78,39.1614 954.5,40C 964.589,43.026 968.923,49.8594 967.5,60.5C 967.332,64.5248 966.999,68.5248 966.5,72.5C 984.46,67.9035 1002.46,63.4035 1020.5,59C 1029.13,57.626 1037.13,59.126 1044.5,63.5C 1045.17,64.8333 1046.17,65.8333 1047.5,66.5C 1051.14,70.1396 1054.81,73.8063 1058.5,77.5C 1058.5,149.5 1058.5,221.5 1058.5,293.5C 705.5,293.5 352.5,293.5 -0.5,293.5C -0.5,217.5 -0.5,141.5 -0.5,65.5C 2.45353,64.5721 5.45353,63.7388 8.5,63C 18.0052,62.6986 27.3385,61.532 36.5,59.5C 38.2503,58.3406 39.2503,56.674 39.5,54.5C 39.5,53.5 39.5,52.5 39.5,51.5C 38.8505,49.5648 38.5172,47.5648 38.5,45.5C 38.2786,42.7212 38.612,40.0545 39.5,37.5C 41.0714,34.7687 43.4048,32.9354 46.5,32C 50.7724,30.8455 55.1057,30.0122 59.5,29.5C 71.4833,32.4869 83.4833,35.4869 95.5,38.5C 103.95,36.8041 112.283,34.6375 120.5,32C 130.071,30.2266 138.738,32.2266 146.5,38C 156.188,49.0906 168.188,52.7573 182.5,49C 187.994,46.0872 193.327,42.9205 198.5,39.5 Z"/></g>
<g><path style="opacity:1" fill="#221e1f" d="M 375.5,38.5 C 375.833,39.5 376.5,40.1667 377.5,40.5C 384.126,46.9218 384.126,53.4218 377.5,60C 373.961,61.5039 370.295,61.8372 366.5,61C 357.548,57.6133 350.715,51.7799 346,43.5C 345.333,40.1667 345.333,36.8333 346,33.5C 354.138,28.2759 362.305,28.4426 370.5,34C 372.24,35.517 373.906,37.017 375.5,38.5 Z"/></g>
<g><path style="opacity:1" fill="#201d1c" d="M 806.5,30.5 C 806.702,32.9496 806.369,35.283 805.5,37.5C 802.518,40.0551 799.351,40.0551 796,37.5C 795.016,32.1414 797.349,29.4747 803,29.5C 804.256,29.6483 805.423,29.9816 806.5,30.5 Z"/></g>
<g><path style="opacity:1" fill="#221e1e" d="M 1054.5,43.5 C 1052.97,43.427 1051.97,44.0937 1051.5,45.5C 1044.58,46.6278 1037.58,46.7945 1030.5,46C 1025.59,42.6545 1025.59,38.9878 1030.5,35C 1038.99,29.3338 1047.15,29.5005 1055,35.5C 1055.72,38.2605 1055.56,40.9272 1054.5,43.5 Z"/></g>
<g><path style="opacity:0.941" fill="#14110d" d="M 806.5,30.5 C 807.88,30.9623 808.547,31.9623 808.5,33.5C 808.439,35.6528 807.439,36.9862 805.5,37.5C 806.369,35.283 806.702,32.9496 806.5,30.5 Z"/></g>
<g><path style="opacity:1" fill="#201d1c" d="M 1005.5,35.5 C 1007.86,35.3367 1010.19,35.5034 1012.5,36C 1014.98,37.938 1015.15,40.1047 1013,42.5C 1009.18,46.3378 1004.68,47.6711 999.5,46.5C 998.693,44.0394 999.193,41.7061 1001,39.5C 1002.67,38.2668 1004.17,36.9335 1005.5,35.5 Z"/></g>
<g><path style="opacity:0.91" fill="#130f0c" d="M 201.5,37.5 C 201.027,38.9063 200.027,39.573 198.5,39.5C 198.973,38.0937 199.973,37.427 201.5,37.5 Z"/></g>
<g><path style="opacity:0.253" fill="#050402" d="M 375.5,38.5 C 376.833,38.5 377.5,39.1667 377.5,40.5C 376.5,40.1667 375.833,39.5 375.5,38.5 Z"/></g>
<g><path style="opacity:0.15" fill="#000000" d="M 234.5,39.5 C 235.833,39.5 236.5,40.1667 236.5,41.5C 235.5,41.1667 234.833,40.5 234.5,39.5 Z"/></g>
<g><path style="opacity:0.792" fill="#1b1711" d="M 39.5,37.5 C 38.612,40.0545 38.2786,42.7212 38.5,45.5C 37.5386,43.7354 37.2053,41.7354 37.5,39.5C 37.5,38.1667 38.1667,37.5 39.5,37.5 Z"/></g>
<g><path style="opacity:0.133" fill="#060402" d="M 1054.5,43.5 C 1054.03,44.9063 1053.03,45.573 1051.5,45.5C 1051.97,44.0937 1052.97,43.427 1054.5,43.5 Z"/></g>
<g><path style="opacity:1" fill="#211d1d" d="M 774.5,44.5 C 778.605,44.2338 782.605,44.7338 786.5,46C 789.791,48.332 790.291,51.1653 788,54.5C 782.01,58.4645 775.51,59.4645 768.5,57.5C 766.744,55.8087 766.244,53.8087 767,51.5C 769.015,48.5883 771.515,46.255 774.5,44.5 Z"/></g>
<g><path style="opacity:0.185" fill="#030201" d="M 37.5,39.5 C 37.2053,41.7354 37.5386,43.7354 38.5,45.5C 38.5172,47.5648 38.8505,49.5648 39.5,51.5C 37.9328,50.3192 37.0995,48.6526 37,46.5C 36.2042,43.9615 36.3709,41.6282 37.5,39.5 Z"/></g>
<g><path style="opacity:0.745" fill="#0e0a06" d="M 39.5,54.5 C 39.2503,56.674 38.2503,58.3406 36.5,59.5C 36.7497,57.326 37.7497,55.6594 39.5,54.5 Z"/></g>
<g><path style="opacity:0.096" fill="#050403" d="M 241.5,55.5 C 243.048,55.8212 243.715,56.8212 243.5,58.5C 242.599,57.7095 241.932,56.7095 241.5,55.5 Z"/></g>
<g><path style="opacity:0.643" fill="#0f0d09" d="M 651.5,55.5 C 651.573,57.0269 650.906,58.0269 649.5,58.5C 649.427,56.9731 650.094,55.9731 651.5,55.5 Z"/></g>
<g><path style="opacity:0.999" fill="#201d1c" d="M 386.5,59.5 C 390.747,59.1778 394.747,60.0111 398.5,62C 400.439,65.6892 399.439,68.0226 395.5,69C 386.568,70.9107 383.568,67.7441 386.5,59.5 Z"/></g>
<g><path style="opacity:0.216" fill="#090604" d="M 1044.5,63.5 C 1046.5,63.5 1047.5,64.5 1047.5,66.5C 1046.17,65.8333 1045.17,64.8333 1044.5,63.5 Z"/></g>
<g><path style="opacity:0.035" fill="#000000" d="M 337.5,68.5 C 340.304,67.3622 343.304,67.1955 346.5,68C 343.518,68.498 340.518,68.6646 337.5,68.5 Z"/></g>
<g><path style="opacity:0.165" fill="#040302" d="M 336.5,69.5 C 335.791,70.404 334.791,70.7373 333.5,70.5C 333.369,69.7611 333.536,69.0944 334,68.5C 334.671,69.2524 335.504,69.5858 336.5,69.5 Z"/></g>
<g><path style="opacity:0.984" fill="#191614" d="M 631.5,79.5 C 629.485,80.9238 627.152,81.5905 624.5,81.5C 626.515,80.0762 628.848,79.4095 631.5,79.5 Z"/></g>
<g><path style="opacity:0.253" fill="#040302" d="M 389.5,90.5 C 390.833,90.5 391.5,91.1667 391.5,92.5C 390.5,92.1667 389.833,91.5 389.5,90.5 Z"/></g>
<g><path style="opacity:0.976" fill="#15120f" d="M 511.5,93.5 C 511.027,94.9063 510.027,95.573 508.5,95.5C 508.973,94.0937 509.973,93.427 511.5,93.5 Z"/></g>
</svg>
