<?xml version="1.0" encoding="iso-8859-1"?>
<!-- Generator: Adobe Illustrator 25.0.0, SVG Export Plug-In . SVG Version: 6.00 Build 0)  -->
<!DOCTYPE svg PUBLIC "-//W3C//DTD SVG 1.1//EN" "http://www.w3.org/Graphics/SVG/1.1/DTD/svg11.dtd" [
	<!ENTITY ns_extend "http://ns.adobe.com/Extensibility/1.0/">
	<!ENTITY ns_ai "http://ns.adobe.com/AdobeIllustrator/10.0/">
	<!ENTITY ns_graphs "http://ns.adobe.com/Graphs/1.0/">
	<!ENTITY ns_vars "http://ns.adobe.com/Variables/1.0/">
	<!ENTITY ns_imrep "http://ns.adobe.com/ImageReplacement/1.0/">
	<!ENTITY ns_sfw "http://ns.adobe.com/SaveForWeb/1.0/">
	<!ENTITY ns_custom "http://ns.adobe.com/GenericCustomNamespace/1.0/">
	<!ENTITY ns_adobe_xpath "http://ns.adobe.com/XPath/1.0/">
]>
<svg version="1.1" id="Layer_1" xmlns:x="&ns_extend;" xmlns:i="&ns_ai;" xmlns:graph="&ns_graphs;"
	 xmlns="http://www.w3.org/2000/svg" xmlns:xlink="http://www.w3.org/1999/xlink" x="0px" y="0px" viewBox="0 0 699.6 364.9"
	 style="enable-background:new 0 0 699.6 364.9;" xml:space="preserve">
<style type="text/css">
	.st0{fill:#242021;}
</style>
<metadata>
	<sfw  xmlns="&ns_sfw;">
		<slices></slices>
		<sliceSourceBounds  bottomLeftOrigin="true" height="364.9" width="1421.6" x="0" y="0"></sliceSourceBounds>
	</sfw>
</metadata>
<g>
	<path class="st0" d="M485.5,302c1.3,1.2,1.5,3,0.5,3.8c-0.7,0.6-2,0.7-4-0.3c-0.4-0.2-0.8-0.5-1.2-0.8c-1.3-1.2-1.4-2.8-0.4-3.5
		C481.7,300,484.4,301,485.5,302z"/>
	<path class="st0" d="M463.6,291.5c2.3-0.5,8.1,0.4,9.8,5.8c0.4,1.3-0.3,2-1.5,2.3c-3.4,0.8-10.8-1.4-11.6-4.3
		C459.7,293.6,461.3,292,463.6,291.5z"/>
	<path class="st0" d="M671.2,281.7c0.5,0.1,0.9,0.3,1.4,0.6c1.5,0.9,2,2.5,1.2,3.4c-1.1,1.3-3.9,0.8-5.2,0c-1.6-1-2.1-2.6-1.4-3.6
		C667.7,281.4,669,281.1,671.2,281.7z"/>
	<path class="st0" d="M682.5,285.7c3.1-1.4,10.9-0.5,12.3,2.1c0.9,1.5-0.3,3.4-2.4,4.3c-2.1,1-8.1,1-10.9-3.9
		C680.8,287,681.3,286.2,682.5,285.7z"/>
	<path class="st0" d="M699.6,273.7c-10.8-5-22.2-8.9-33.8-10.1c-30.2-3.1-24.4,14.1-43.4,21.8c-9.1,3.7-19.6-0.5-28.5,4.2
		c-8.9,4.6-6.6,18.1-25.5,16.2c-17.3-1.8-37.2-17.5-50.6-18.9c-9.8-1-16.6,4.8-25.4,3.9c-10.4-1.1-19.4-8.5-30.1-9.6
		c-15.3-1.6-33.5,10.1-50.3,8.4c-8.8-0.9-13.1-4.7-12-12.8c0.5-3.2,1.4-6.4,2.7-9.4c-11.4,0.1-25.1,5.3-36.6,4.1
		c-8.8-0.9-11.3-4.5-13.2-8.1c-2.5-1.2-5.1-2.2-7.3-2.2c-2.3,0-4.4,1.2-6.4,4.3c4,4.2,16.8,7,17,13.4c0.1,3.6-4.8,5.2-8.6,5.3
		c-11.6,0.2-55.7-25.1-58.1-25.5c-6.3,5.2-12.8,10.6-19.3,9.9c-2.3-0.1-4.3-1.9-4.7-4.2c-12.9,9.1-19.1,25.2-38,25.6
		c-18,0.4-17.7-13.8-32.7-13.5c-37.5,0.8-26.9,36-43.5,36.3c-12.7,0.2-15.6-17.2-28.3-17.1h-0.1c-10.3,0.2-14.4,12.7-24.8,12.9
		c-7.9,0.2-12.4-7-20.5-6.8c-7.1,0.2-12.5,4.7-18.8,4.8c-5.4,0.1-12.5-4-12.7-9.3c-0.1-3.5,2.3-7.1,2.2-10.5
		c-0.3-13.2-25-1.3-25.5-19.7c-0.1-5,3-8.9,2.9-13.2c-0.3-11.9-6.3-15.2-25.7-24v-78V0h0.2h699.4v217.8L699.6,273.7z"/>
	<path class="st0" d="M253,286.3c1.9-0.5,5.7,0.3,5.2,3.5c-0.3,2-2.2,2.6-3.7,3C248.7,294.4,250.3,287.1,253,286.3z"/>
	<path class="st0" d="M236.1,293.4c2.6-1.6,6.7-3.4,8.7-0.8c6.7,9-2.7,17.2-7.3,20.1c-4.1,2.6-8.9,2.3-11-0.4
		c-2.3-2.9-1.5-8.7,6.7-16.7C234.2,294.8,235.1,294.1,236.1,293.4z"/>
	<path class="st0" d="M134.8,317.9c1.9-0.5,5.7,0.3,5.2,3.5c-0.4,2-2.3,2.6-3.7,3C130.5,326.1,132.1,318.7,134.8,317.9z"/>
	<path class="st0" d="M114.2,322.5c4-1.7,8.3-0.9,9.6,1.5c1,1.8,0.2,4.5-3.6,7.6c-0.8,0.7-1.8,1.3-2.8,1.7c-3.8,1.6-7.7,0.7-8.9-1.6
		C106.7,328.3,110.9,323.9,114.2,322.5z"/>
</g>
</svg>
