<svg xmlns="http://www.w3.org/2000/svg" viewBox="0 0 699.63 342.53"><defs><style>.cls-1{fill:#242021;}</style></defs><g id="OBJECTS"><path class="cls-1" d="M482,305.47c2,1,3.33.92,4,.32,1-.8.78-2.52-.54-3.76-1.1-1-3.75-2-5.09-.91-.94.79-.84,2.35.43,3.54A5,5,0,0,0,482,305.47Z"/><path class="cls-1" d="M463.58,291.45c2.28-.55,8.15.42,9.8,5.81.39,1.26-.3,2-1.54,2.29-3.36.82-10.75-1.44-11.63-4.28C459.7,293.6,461.32,292,463.58,291.45Z"/><path class="cls-1" d="M464.94,296c1.71.09,3.16-.69,3.23-1.75s-1.25-2-3-2.08-3.16.68-3.23,1.74S463.23,295.86,464.94,296Z"/><path class="cls-1" d="M671.15,281.69c-2.17-.63-3.47-.3-4,.41-.76.95-.19,2.6,1.38,3.59,1.32.82,4.13,1.32,5.19,0,.74-.93.29-2.44-1.22-3.38A5,5,0,0,0,671.15,281.69Z"/><path class="cls-1" d="M692.38,292.13c-2.1.95-8.07,1.05-10.91-3.94-.66-1.17-.15-2,1-2.52,3.11-1.4,10.86-.5,12.35,2.12C695.7,289.33,694.48,291.19,692.38,292.13Z"/><path class="cls-1" d="M690,288c-1.7.21-2.94,1.23-2.78,2.28s1.68,1.73,3.38,1.52,2.94-1.23,2.77-2.28S691.74,287.75,690,288Z"/><path class="cls-1" d="M699.63,217.84V0H.22V151.56a3.46,3.46,0,0,0-.22.31v78c19.39,8.77,25.38,12.08,25.69,24,.11,4.32-3,8.23-2.87,13.19.46,18.37,25.17,6.49,25.5,19.7.09,3.45-2.31,7-2.22,10.53.14,5.29,7.27,9.41,12.67,9.31,6.31-.13,11.77-4.69,18.84-4.84,8.1-.16,12.56,7,20.49,6.81,10.43-.21,14.52-12.74,24.79-12.95h.1c12.73-.14,15.59,17.36,28.3,17.11,16.63-.34,6-35.56,43.48-36.32,14.95-.29,14.69,13.86,32.68,13.5,18.87-.38,25.06-16.44,37.95-25.57a5.1,5.1,0,0,0,4.72,4.17c6.5.67,13-4.67,19.27-9.92,2.35.41,46.47,25.72,58.07,25.49,3.9-.08,8.74-1.72,8.65-5.33-.16-6.41-12.92-9.13-16.95-13.36,2-3.16,4.14-4.28,6.42-4.32s4.8,1,7.34,2.2c1.93,3.59,4.45,7.22,13.23,8.12,11.57,1.19,25.2-4,36.63-4.09a43.7,43.7,0,0,0-2.66,9.42c-1.06,8.15,3.17,11.89,12,12.8,16.78,1.73,35-10,50.26-8.39,10.69,1.1,19.7,8.5,30.09,9.57,8.81.91,15.59-4.9,25.4-3.88,13.31,1.37,33.21,17.09,50.56,18.88,18.83,1.94,16.53-11.57,25.47-16.21s19.47-.5,28.53-4.18c19-7.72,13.2-24.89,43.38-21.78,11.59,1.19,23,5.14,33.79,10.11Z"/><path class="cls-1" d="M258.2,289.75c.52-3.12-3.33-4-5.19-3.46-2.72.77-4.3,8.14,1.47,6.51C256,292.39,257.86,291.72,258.2,289.75Z"/><path class="cls-1" d="M237.58,312.75c4.62-2.89,14-11.12,7.28-20.09-2-2.65-6.16-.83-8.72.75a16.75,16.75,0,0,0-2.81,2.24c-8.16,8-9,13.77-6.7,16.7C228.73,315,233.44,315.32,237.58,312.75Z"/><path class="cls-1" d="M140,321.39c.53-3.11-3.31-4-5.19-3.46-2.71.77-4.29,8.14,1.49,6.52C137.71,324,139.62,323.36,140,321.39Z"/><path class="cls-1" d="M120.25,331.62c3.83-3.14,4.55-5.81,3.58-7.61-1.3-2.41-5.63-3.24-9.58-1.55-3.32,1.43-7.56,5.87-5.72,9.25,1.26,2.36,5.15,3.25,8.94,1.62A11.11,11.11,0,0,0,120.25,331.62Z"/><path class="cls-1" d="M.22,151.56V0H0V151.87A3.46,3.46,0,0,1,.22,151.56Z"/></g></svg>