     <svg xmlns="http://www.w3.org/2000/svg" viewBox="0 0 699.63 364.9"><defs><style>.cls-1{fill:#242021;}</style></defs><g id="OBJECTS"><path class="cls-1" d="M482,59.43c2-1,3.33-.92,4-.32,1,.8.78,2.52-.54,3.76-1.1,1.05-3.75,2-5.09.91-.94-.79-.84-2.35.43-3.54A5,5,0,0,1,482,59.43Z"/><path class="cls-1" d="M463.58,73.45c2.28.55,8.15-.42,9.8-5.81.39-1.26-.3-2-1.54-2.29-3.36-.81-10.75,1.44-11.63,4.28C459.7,71.3,461.32,72.9,463.58,73.45Z"/><path class="cls-1" d="M464.94,68.94c1.71-.09,3.16.69,3.23,1.75s-1.25,2-3,2.09S462.05,72.09,462,71,463.23,69,464.94,68.94Z"/><path class="cls-1" d="M671.15,83.21c-2.17.63-3.47.3-4-.41-.76-1-.19-2.6,1.38-3.59,1.32-.82,4.13-1.32,5.19,0,.74.93.29,2.44-1.22,3.38A5,5,0,0,1,671.15,83.21Z"/><path class="cls-1" d="M692.38,72.77c-2.1-1-8.07-1-10.91,3.94-.66,1.17-.15,2,1,2.52,3.11,1.4,10.86.51,12.35-2.12C695.7,75.57,694.48,73.71,692.38,72.77Z"/><path class="cls-1" d="M690,76.94c-1.7-.21-2.94-1.23-2.78-2.28s1.68-1.73,3.38-1.52,2.94,1.24,2.77,2.29S691.74,77.15,690,76.94Z"/><path class="cls-1" d="M699.63,147.06V364.9H.22V213.34A3.3,3.3,0,0,1,0,213v-78c19.39-8.77,25.38-12.08,25.69-24,.11-4.32-3-8.23-2.87-13.19.46-18.37,25.17-6.48,25.5-19.7.09-3.45-2.31-7-2.22-10.52.14-5.29,7.27-9.42,12.67-9.32,6.31.13,11.77,4.69,18.84,4.84,8.1.16,12.56-7,20.49-6.8,10.43.21,14.52,12.74,24.79,12.94h.1c12.73.14,15.59-17.36,28.3-17.11,16.63.34,6,35.57,43.48,36.32,14.95.3,14.69-13.86,32.68-13.49,18.87.37,25.06,16.43,37.95,25.56a5.11,5.11,0,0,1,4.72-4.17c6.5-.67,13,4.67,19.27,9.92,2.35-.41,46.47-25.72,58.07-25.49,3.9.08,8.74,1.72,8.65,5.33-.16,6.41-12.92,9.13-16.95,13.36,2,3.16,4.14,4.28,6.42,4.32s4.8-1,7.34-2.2c1.93-3.59,4.45-7.22,13.23-8.12,11.57-1.19,25.2,4,36.63,4.09a43.7,43.7,0,0,1-2.66-9.42c-1.06-8.15,3.17-11.89,12-12.8,16.78-1.73,35,10,50.26,8.39,10.69-1.1,19.7-8.5,30.09-9.57,8.81-.91,15.59,4.9,25.4,3.88,13.31-1.37,33.21-17.09,50.56-18.88,18.83-1.94,16.53,11.57,25.47,16.21s19.47.5,28.53,4.18c19,7.72,13.2,24.89,43.38,21.78,11.59-1.19,23-5.14,33.79-10.11Z"/><path class="cls-1" d="M258.2,75.15c.52,3.12-3.33,4-5.19,3.46-2.72-.77-4.3-8.14,1.47-6.5C256,72.52,257.86,73.18,258.2,75.15Z"/><path class="cls-1" d="M237.58,52.15c4.62,2.89,14,11.12,7.28,20.1-2,2.64-6.16.83-8.72-.76a16.75,16.75,0,0,1-2.81-2.24c-8.16-8-9-13.77-6.7-16.7C228.73,49.88,233.44,49.58,237.58,52.15Z"/><path class="cls-1" d="M140,43.51c.53,3.11-3.31,4-5.19,3.46-2.71-.77-4.29-8.14,1.49-6.51C137.71,40.87,139.62,41.54,140,43.51Z"/><path class="cls-1" d="M120.25,33.28c3.83,3.14,4.55,5.81,3.58,7.61-1.3,2.41-5.63,3.24-9.58,1.55-3.32-1.42-7.56-5.87-5.72-9.25,1.26-2.36,5.15-3.24,8.94-1.62A11.11,11.11,0,0,1,120.25,33.28Z"/><path class="cls-1" d="M.22,213.34V364.9H0V213A3.3,3.3,0,0,0,.22,213.34Z"/></g></svg>