<?xml version="1.0" encoding="UTF-8"?>
<!DOCTYPE svg PUBLIC "-//W3C//DTD SVG 1.1//EN" "http://www.w3.org/Graphics/SVG/1.1/DTD/svg11.dtd">
<svg xmlns="http://www.w3.org/2000/svg" version="1.1" width="1200px" height="343px" style="shape-rendering:geometricPrecision; text-rendering:geometricPrecision; image-rendering:optimizeQuality; fill-rule:evenodd; clip-rule:evenodd" xmlns:xlink="http://www.w3.org/1999/xlink">
<g><path style="opacity:1" fill="#242020" d="M -0.5,-0.5 C 352.5,-0.5 705.5,-0.5 1058.5,-0.5C 1058.5,235.167 1058.5,470.833 1058.5,706.5C 1054.81,710.194 1051.14,713.86 1047.5,717.5C 1046.17,718.167 1045.17,719.167 1044.5,720.5C 1037.13,724.874 1029.13,726.374 1020.5,725C 1002.46,720.597 984.46,716.097 966.5,711.5C 972.019,738.778 961.019,749.611 933.5,744C 930.471,743.461 927.471,742.794 924.5,742C 907.683,735.006 890.683,728.506 873.5,722.5C 873.082,721.778 872.416,721.278 871.5,721C 868.854,720.503 866.187,720.336 863.5,720.5C 856.799,721.004 850.132,721.838 843.5,723C 832.532,726.367 821.365,728.867 810,730.5C 806.825,730.054 803.658,729.554 800.5,729C 791.609,725.389 782.609,722.055 773.5,719C 768.5,718.333 763.5,718.333 758.5,719C 739.715,723.928 721.048,729.262 702.5,735C 692.008,737.972 681.341,738.972 670.5,738C 662.169,737.252 655.336,733.752 650,727.5C 646.363,714.195 637.863,706.029 624.5,703C 613.993,701.797 603.66,699.797 593.5,697C 585.664,692.659 579.331,686.826 574.5,679.5C 573.855,677.174 572.522,675.507 570.5,674.5C 569.772,672.265 568.439,670.432 566.5,669C 560.086,667.083 553.586,665.583 547,664.5C 543.224,664.847 539.891,666.181 537,668.5C 536.383,669.449 536.549,670.282 537.5,671C 545.163,674.829 552.496,679.163 559.5,684C 565.004,690.385 564.004,695.718 556.5,700C 547.018,702.18 537.685,701.513 528.5,698C 508.049,687.845 487.049,678.845 465.5,671C 456.989,668.469 448.322,667.469 439.5,668C 426.346,673.081 413.346,678.414 400.5,684C 393.208,690.657 385.875,697.324 378.5,704C 364.894,712.394 350.06,716.227 334,715.5C 323.531,711.189 313.031,706.689 302.5,702C 287.15,699.802 272.484,702.135 258.5,709C 251.923,713.239 246.923,718.739 243.5,725.5C 242.599,726.29 241.932,727.29 241.5,728.5C 236.18,752.057 222.847,758.057 201.5,746.5C 201.027,745.094 200.027,744.427 198.5,744.5C 190.671,738.391 181.838,734.724 172,733.5C 161.608,733.85 153.108,738.017 146.5,746C 138.738,751.773 130.071,753.773 120.5,752C 112.283,749.363 103.95,747.196 95.5,745.5C 83.4833,748.513 71.4833,751.513 59.5,754.5C 55.1057,753.988 50.7724,753.154 46.5,752C 43.4048,751.065 41.0714,749.231 39.5,746.5C 38.2216,741.865 38.2216,737.198 39.5,732.5C 39.5,731.5 39.5,730.5 39.5,729.5C 39.4456,727.368 38.4456,726.035 36.5,725.5C 35.3998,724.442 34.0664,723.608 32.5,723C 21.3042,722.59 10.3042,721.09 -0.5,718.5C -0.5,478.833 -0.5,239.167 -0.5,-0.5 Z"/></g>
<g><path style="opacity:0.988" fill="#352a1e" d="M 570.5,674.5 C 572.522,675.507 573.855,677.174 574.5,679.5C 572.478,678.493 571.145,676.826 570.5,674.5 Z"/></g>
<g><path style="opacity:0.035" fill="#42321c" d="M 337.5,716.5 C 340.304,715.362 343.304,715.195 346.5,716C 343.518,716.498 340.518,716.665 337.5,716.5 Z"/></g>
<g><path style="opacity:0.999" fill="#272220" d="M 387.5,714.5 C 391.273,714.263 394.94,714.763 398.5,716C 400.652,720.873 398.985,723.54 393.5,724C 384.768,725.034 382.768,721.867 387.5,714.5 Z"/></g>
<g><path style="opacity:0.027" fill="#3f301d" d="M 1047.5,717.5 C 1047.5,719.5 1046.5,720.5 1044.5,720.5C 1045.17,719.167 1046.17,718.167 1047.5,717.5 Z"/></g>
<g><path style="opacity:0.984" fill="#352a1e" d="M 863.5,720.5 C 866.187,720.336 868.854,720.503 871.5,721C 872.416,721.278 873.082,721.778 873.5,722.5C 869.989,722.101 866.656,721.434 863.5,720.5 Z"/></g>
<g><path style="opacity:1" fill="#252020" d="M 366.5,722.5 C 375.91,720.751 381.243,724.584 382.5,734C 379.803,743.371 373.803,749.704 364.5,753C 358.669,755.229 353.002,754.895 347.5,752C 345.004,747.677 344.838,743.177 347,738.5C 352.293,731.616 358.793,726.282 366.5,722.5 Z"/></g>
<g><path style="opacity:1" fill="#272220" d="M 768.5,725.5 C 775.544,724.533 782.044,725.867 788,729.5C 790.653,734.536 789.153,737.703 783.5,739C 776.345,740.834 770.845,738.667 767,732.5C 766.4,729.905 766.9,727.571 768.5,725.5 Z"/></g>
<g><path style="opacity:0.075" fill="#41321c" d="M 36.5,725.5 C 38.4456,726.035 39.4456,727.368 39.5,729.5C 38.0256,728.564 37.0256,727.23 36.5,725.5 Z"/></g>
<g><path style="opacity:0.067" fill="#3a2f1c" d="M 243.5,725.5 C 243.715,727.179 243.048,728.179 241.5,728.5C 241.932,727.29 242.599,726.29 243.5,725.5 Z"/></g>
<g><path style="opacity:1" fill="#282320" d="M 999.5,736.5 C 1001.53,736.338 1003.53,736.505 1005.5,737C 1007.27,738.439 1009.27,739.439 1011.5,740C 1016.08,744.599 1015.24,747.432 1009,748.5C 1001.8,747.482 998.63,743.482 999.5,736.5 Z"/></g>
<g><path style="opacity:0.831" fill="#3b2e1c" d="M 39.5,732.5 C 38.2216,737.198 38.2216,741.865 39.5,746.5C 37.1163,745.575 36.1163,743.742 36.5,741C 36.7618,738.453 37.2618,735.953 38,733.5C 38.3826,732.944 38.8826,732.611 39.5,732.5 Z"/></g>
<g><path style="opacity:1" fill="#262120" d="M 1051.5,738.5 C 1052.17,739.833 1053.17,740.833 1054.5,741.5C 1056.77,747.792 1054.44,751.626 1047.5,753C 1041.42,753.486 1035.76,752.153 1030.5,749C 1026.95,746.009 1026.29,742.675 1028.5,739C 1036.14,737.201 1043.81,737.034 1051.5,738.5 Z"/></g>
<g><path style="opacity:0.024" fill="#40311c" d="M 1051.5,738.5 C 1053.5,738.5 1054.5,739.5 1054.5,741.5C 1053.17,740.833 1052.17,739.833 1051.5,738.5 Z"/></g>
<g><path style="opacity:0.463" fill="#392c1d" d="M 198.5,744.5 C 200.027,744.427 201.027,745.094 201.5,746.5C 199.973,746.573 198.973,745.906 198.5,744.5 Z"/></g>
<g><path style="opacity:1" fill="#282220" d="M 805.5,746.5 C 806.369,748.717 806.702,751.05 806.5,753.5C 803.492,754.741 800.492,754.574 797.5,753C 794.601,749.844 794.935,747.178 798.5,745C 800.5,744.333 802.5,744.333 804.5,745C 805.056,745.383 805.389,745.883 805.5,746.5 Z"/></g>
<g><path style="opacity:0.949" fill="#3a2d1d" d="M 805.5,746.5 C 807.439,747.014 808.439,748.347 808.5,750.5C 808.547,752.038 807.88,753.038 806.5,753.5C 806.702,751.05 806.369,748.717 805.5,746.5 Z"/></g>
<g><path style="opacity:0.999" fill="#282220" d="M 192.5,758.5 C 195.909,758.249 199.242,758.583 202.5,759.5C 204.256,761.191 204.756,763.191 204,765.5C 200.102,768.524 195.935,769.357 191.5,768C 188.951,764.648 189.284,761.481 192.5,758.5 Z"/></g>
<g><path style="opacity:1" fill="#272120" d="M 166.5,764.5 C 170.261,764.648 173.761,765.648 177,767.5C 178.854,770.652 178.521,773.652 176,776.5C 168.761,782.631 160.594,784.131 151.5,781C 149.294,778.791 148.96,776.291 150.5,773.5C 154.757,768.376 160.091,765.376 166.5,764.5 Z"/></g>
</svg>
