<?xml version="1.0" encoding="UTF-8"?>
<!DOCTYPE svg PUBLIC "-//W3C//DTD SVG 1.1//EN" "http://www.w3.org/Graphics/SVG/1.1/DTD/svg11.dtd">
<svg xmlns="http://www.w3.org/2000/svg" version="1.1" width="1059px" height="616px" style="shape-rendering:geometricPrecision; text-rendering:geometricPrecision; image-rendering:optimizeQuality; fill-rule:evenodd; clip-rule:evenodd" xmlns:xlink="http://www.w3.org/1999/xlink">
<g><path style="opacity:1" fill="#241f20" d="M -0.5,-0.5 C 352.5,-0.5 705.5,-0.5 1058.5,-0.5C 1058.5,159.5 1058.5,319.5 1058.5,479.5C 1053.8,483.356 1049.8,487.856 1046.5,493C 1034.67,499.125 1022.34,500.125 1009.5,496C 995.279,491.647 980.946,487.814 966.5,484.5C 968.24,493.318 967.74,501.985 965,510.5C 962.01,513.491 958.51,515.657 954.5,517C 945.78,517.839 937.113,517.505 928.5,516C 910.743,509.624 893.077,502.957 875.5,496C 870.524,495.027 865.524,494.194 860.5,493.5C 843.658,496.724 826.824,500.057 810,503.5C 806.825,503.054 803.658,502.554 800.5,502C 791.609,498.389 782.609,495.055 773.5,492C 762.553,490.989 751.886,492.322 741.5,496C 723.551,502.404 705.218,507.404 686.5,511C 675.608,512.675 665.275,511.009 655.5,506C 653.772,504.027 651.939,502.194 650,500.5C 646.363,487.195 637.863,479.029 624.5,476C 616.172,474.593 607.838,473.26 599.5,472C 591.136,469.402 583.969,464.902 578,458.5C 573.81,453.299 569.976,447.799 566.5,442C 560.086,440.083 553.586,438.583 547,437.5C 543.224,437.847 539.891,439.181 537,441.5C 536.383,442.449 536.549,443.282 537.5,444C 545.163,447.829 552.496,452.163 559.5,457C 565.004,463.385 564.004,468.718 556.5,473C 547.018,475.18 537.685,474.513 528.5,471C 508.049,460.845 487.049,451.845 465.5,444C 455.947,440.791 446.281,440.124 436.5,442C 424.46,447.024 412.46,452.024 400.5,457C 393.208,463.657 385.875,470.324 378.5,477C 364.894,485.394 350.06,489.227 334,488.5C 325.35,485.271 316.85,481.438 308.5,477C 291.272,472.172 274.605,473.839 258.5,482C 255,484.833 251.5,487.667 248,490.5C 243.33,498.56 239.496,506.893 236.5,515.5C 235.5,515.833 234.833,516.5 234.5,517.5C 230.865,522.894 225.699,525.561 219,525.5C 214.367,524.84 209.867,523.673 205.5,522C 198,517.082 190.333,512.416 182.5,508C 168.188,504.243 156.188,507.909 146.5,519C 138.738,524.773 130.071,526.773 120.5,525C 112.283,522.363 103.95,520.196 95.5,518.5C 83.4833,521.513 71.4833,524.513 59.5,527.5C 53.532,527.074 47.8653,525.574 42.5,523C 40.576,521.25 38.9093,519.417 37.5,517.5C 37.7244,513.821 38.0578,510.154 38.5,506.5C 39.0517,501.789 37.0517,498.289 32.5,496C 21.3042,495.59 10.3042,494.09 -0.5,491.5C -0.5,327.5 -0.5,163.5 -0.5,-0.5 Z"/></g>
<g><path style="opacity:0.035" fill="#020101" d="M 337.5,489.5 C 340.304,488.362 343.304,488.195 346.5,489C 343.518,489.498 340.518,489.665 337.5,489.5 Z"/></g>
<g><path style="opacity:0.999" fill="#231f1e" d="M 387.5,487.5 C 391.273,487.263 394.94,487.763 398.5,489C 400.652,493.873 398.985,496.54 393.5,497C 384.768,498.034 382.768,494.867 387.5,487.5 Z"/></g>
<g><path style="opacity:1" fill="#231f1f" d="M 366.5,495.5 C 375.91,493.751 381.243,497.584 382.5,507C 379.803,516.371 373.803,522.704 364.5,526C 358.669,528.229 353.002,527.895 347.5,525C 345.004,520.677 344.838,516.177 347,511.5C 352.293,504.616 358.793,499.282 366.5,495.5 Z"/></g>
<g><path style="opacity:1" fill="#231f1e" d="M 768.5,498.5 C 775.544,497.533 782.044,498.867 788,502.5C 790.653,507.536 789.153,510.703 783.5,512C 776.345,513.834 770.845,511.667 767,505.5C 766.4,502.905 766.9,500.571 768.5,498.5 Z"/></g>
<g><path style="opacity:1" fill="#231f1d" d="M 999.5,509.5 C 1001.53,509.338 1003.53,509.505 1005.5,510C 1007.27,511.439 1009.27,512.439 1011.5,513C 1016.08,517.599 1015.24,520.432 1009,521.5C 1001.8,520.482 998.63,516.482 999.5,509.5 Z"/></g>
<g><path style="opacity:1" fill="#231f1f" d="M 1054.5,513.5 C 1053.96,513.56 1053.62,513.893 1053.5,514.5C 1054.05,516.657 1054.72,518.657 1055.5,520.5C 1050.38,526.496 1044.04,527.996 1036.5,525C 1031.37,523.703 1028.04,520.536 1026.5,515.5C 1027.03,513.259 1028.37,511.759 1030.5,511C 1037.17,510.333 1043.83,510.333 1050.5,511C 1052.32,511.2 1053.65,512.034 1054.5,513.5 Z"/></g>
<g><path style="opacity:0.267" fill="#110d07" d="M 38.5,506.5 C 38.0578,510.154 37.7244,513.821 37.5,517.5C 36.226,513.735 36.5593,510.069 38.5,506.5 Z"/></g>
<g><path style="opacity:0.897" fill="#272019" d="M 1054.5,513.5 C 1055.37,515.717 1055.7,518.05 1055.5,520.5C 1054.72,518.657 1054.05,516.657 1053.5,514.5C 1053.62,513.893 1053.96,513.56 1054.5,513.5 Z"/></g>
<g><path style="opacity:0.027" fill="#070503" d="M 236.5,515.5 C 236.5,516.833 235.833,517.5 234.5,517.5C 234.833,516.5 235.5,515.833 236.5,515.5 Z"/></g>
<g><path style="opacity:1" fill="#221e1c" d="M 798.5,517.5 C 801.482,517.104 804.149,517.771 806.5,519.5C 809.848,524.097 808.681,526.764 803,527.5C 795.14,526.525 793.64,523.192 798.5,517.5 Z"/></g>
<g><path style="opacity:0.999" fill="#221e1d" d="M 192.5,531.5 C 195.909,531.249 199.242,531.583 202.5,532.5C 204.256,534.191 204.756,536.191 204,538.5C 200.102,541.524 195.935,542.357 191.5,541C 188.951,537.648 189.284,534.481 192.5,531.5 Z"/></g>
<g><path style="opacity:1" fill="#221e1e" d="M 166.5,537.5 C 170.261,537.648 173.761,538.648 177,540.5C 178.854,543.652 178.521,546.652 176,549.5C 168.761,555.631 160.594,557.131 151.5,554C 149.294,551.791 148.96,549.291 150.5,546.5C 154.757,541.376 160.091,538.376 166.5,537.5 Z"/></g>
</svg>
